<?xml version="1.0" encoding="UTF-8" standalone="no"?>
<!-- Created with Inkscape (http://www.inkscape.org/) -->

<svg
   xmlns:dc="http://purl.org/dc/elements/1.1/"
   xmlns:cc="http://creativecommons.org/ns#"
   xmlns:rdf="http://www.w3.org/1999/02/22-rdf-syntax-ns#"
   xmlns:svg="http://www.w3.org/2000/svg"
   xmlns="http://www.w3.org/2000/svg"
   xmlns:sodipodi="http://sodipodi.sourceforge.net/DTD/sodipodi-0.dtd"
   xmlns:inkscape="http://www.inkscape.org/namespaces/inkscape"
   width="120mm"
   height="120mm"
   viewBox="0 0 120 120"
   version="1.1"
   id="svg8"
   inkscape:version="0.92.4 (5da689c313, 2019-01-14)"
   sodipodi:docname="logosmall.svg"
   inkscape:export-filename="E:\ProgramFiles\GithubRepository\unanimity\untouched images\new design\logolarge.png"
   inkscape:export-xdpi="96"
   inkscape:export-ydpi="96">
  <defs
     id="defs2" />
  <sodipodi:namedview
     id="base"
     pagecolor="#ffffff"
     bordercolor="#666666"
     borderopacity="1.0"
     inkscape:pageopacity="0.0"
     inkscape:pageshadow="2"
     inkscape:zoom="0.7"
     inkscape:cx="-125.86769"
     inkscape:cy="197.30205"
     inkscape:document-units="mm"
     inkscape:current-layer="layer1"
     showgrid="false"
     inkscape:pagecheckerboard="true"
     inkscape:window-width="2560"
     inkscape:window-height="1017"
     inkscape:window-x="1912"
     inkscape:window-y="-8"
     inkscape:window-maximized="1" />
  <metadata
     id="metadata5">
    <rdf:RDF>
      <cc:Work
         rdf:about="">
        <dc:format>image/svg+xml</dc:format>
        <dc:type
           rdf:resource="http://purl.org/dc/dcmitype/StillImage" />
        <dc:title></dc:title>
      </cc:Work>
    </rdf:RDF>
  </metadata>
  <g
     inkscape:label="Layer 1"
     inkscape:groupmode="layer"
     id="layer1"
     transform="translate(0,-177)">
    <g
       id="g1259"
       transform="translate(236.93243,20.180862)">
      <rect
         rx="13.13468"
         ry="14.930068"
         y="157.28789"
         x="-236.46368"
         height="119.0625"
         width="119.0625"
         id="rect1460-2"
         style="opacity:1;fill:#0000ff;fill-opacity:1;fill-rule:evenodd;stroke:none;stroke-width:0.0264583;stroke-linecap:round;stroke-linejoin:round;stroke-miterlimit:4;stroke-dasharray:none;stroke-opacity:1;paint-order:markers fill stroke" />
      <g
         style="stroke-width:0.07899173"
         transform="matrix(12.659553,0,0,12.659553,-7174.2479,4246.201)"
         id="g1606">
        <path
           style="fill:#f6f6f6;fill-opacity:1;stroke:none;stroke-width:0.00208999;stroke-linecap:butt;stroke-linejoin:miter;stroke-miterlimit:4;stroke-dasharray:none;stroke-opacity:1"
           d="m 554.34138,-322.17968 0.59501,0.003 0.002,4.13264 c 0.0158,0.0668 -0.0561,0.86854 -0.18736,1.08021 -0.002,0.53749 0.80642,2.45726 0.86446,2.56781 -0.32926,-0.16926 -1.8787,-1.09247 -2.03887,-1.19557 -0.14144,0.0813 1.8e-4,0.0294 -0.38924,0.16155 -0.41413,0.12383 -0.99078,0.14352 -1.35766,0.061 -0.16909,-0.0256 -0.35789,-0.0907 -0.53472,-0.17261 -0.31319,-0.14513 -0.61973,-0.39564 -0.66574,-0.4609 -0.0663,-0.0647 -0.36621,-0.34683 -0.59172,-0.92313 -0.21566,-0.56645 -0.19201,-1.14304 -0.19219,-1.14322 l 10e-4,-4.1103 0.59092,0.003 c 0.009,1.43503 -0.0166,2.89661 0.005,4.28362 0,0 0.0177,0.47849 0.16177,0.81387 0.0435,0.10126 0.0852,0.19077 0.12011,0.25521 0.1405,0.22883 0.37401,0.54036 0.68991,0.7142 0.0979,0.0539 0.20001,0.1 0.304,0.13981 0.51296,0.16391 0.94409,0.13526 1.37191,-0.005 0.14004,-0.054 0.30251,-0.13642 0.43718,-0.23711 0.25706,-0.19219 0.42832,-0.43845 0.42832,-0.43845 0.0269,-0.034 0.27614,-0.49292 0.26561,-0.53389 0,0 0.0793,-0.33533 0.10913,-0.57069 0.0102,0.28868 0.0257,-1.08394 0.0167,-1.24447 z"
           id="path881-1-7-3-69-7"
           inkscape:connector-curvature="0"
           sodipodi:nodetypes="ccccccccsccccccscsccscsccc" />
        <path
           style="fill:#f6f6f6;fill-opacity:1;stroke:none;stroke-width:0.0208999px;stroke-linecap:butt;stroke-linejoin:miter;stroke-opacity:1"
           d="m 553.24545,-316.01045 c 0.16207,-0.95944 0.16411,-2.70947 0.86866,-2.71343 l -0.86553,0.0517 -0.87655,-0.049 c 0.71094,-10e-4 0.71111,1.74959 0.87342,2.71028 z"
           id="path1060-9-5-3-6"
           inkscape:connector-curvature="0"
           sodipodi:nodetypes="cccccc" />
        <ellipse
           style="opacity:1;fill:#f6f6f6;fill-opacity:1;fill-rule:evenodd;stroke:none;stroke-width:0.04739504;stroke-linecap:round;stroke-linejoin:round;stroke-miterlimit:4;stroke-dasharray:none;stroke-opacity:1;paint-order:markers fill stroke"
           id="path1131-2-7-1-8"
           cx="553.23755"
           cy="-319.29846"
           rx="0.22616632"
           ry="0.23774482" />
        <path
           style="fill:#f6f6f6;fill-opacity:1;stroke:none;stroke-width:0.0208999px;stroke-linecap:butt;stroke-linejoin:miter;stroke-opacity:1"
           d="m 551.50338,-316.00771 c 0.16207,-0.95944 0.16411,-2.70947 0.86866,-2.71343 l -0.86553,0.0517 -0.87655,-0.049 c 0.71094,-0.001 0.71111,1.74959 0.87342,2.71028 z"
           id="path1060-9-5-3-7-3"
           inkscape:connector-curvature="0"
           sodipodi:nodetypes="cccccc" />
        <ellipse
           style="opacity:1;fill:#f6f6f6;fill-opacity:1;fill-rule:evenodd;stroke:none;stroke-width:0.04739504;stroke-linecap:round;stroke-linejoin:round;stroke-miterlimit:4;stroke-dasharray:none;stroke-opacity:1;paint-order:markers fill stroke"
           id="path1131-2-7-1-7-2"
           cx="551.49548"
           cy="-319.29572"
           rx="0.22616632"
           ry="0.23774482" />
      </g>
    </g>
  </g>
</svg>
