<?xml version="1.0" standalone="no"?>
<!DOCTYPE svg PUBLIC "-//W3C//DTD SVG 20010904//EN"
 "http://www.w3.org/TR/2001/REC-SVG-20010904/DTD/svg10.dtd">
<svg version="1.0" xmlns="http://www.w3.org/2000/svg"
 width="700.000000pt" height="700.000000pt" viewBox="0 0 700.000000 700.000000"
 preserveAspectRatio="xMidYMid meet">
<metadata>
Created by potrace 1.11, written by Peter Selinger 2001-2013
</metadata>
<g transform="translate(0.000000,700.000000) scale(0.100000,-0.100000)"
fill="#000000" stroke="none">
<path d="M705 6978 c-352 -39 -650 -373 -682 -763 -8 -105 -8 -5350 0 -5435
24 -232 138 -451 313 -600 80 -68 234 -138 340 -156 22 -4 1297 -7 2834 -7
l2795 0 80 22 c322 89 559 388 592 746 3 39 6 1276 6 2750 0 2644 -1 2681 -20
2775 -73 343 -308 595 -618 660 -48 11 -624 13 -2820 14 -1518 1 -2787 -2
-2820 -6z"/>
</g>
</svg>
