<?xml version="1.0" encoding="UTF-8" standalone="no"?>
<!-- Created with Inkscape (http://www.inkscape.org/) -->

<svg
   xmlns:dc="http://purl.org/dc/elements/1.1/"
   xmlns:cc="http://creativecommons.org/ns#"
   xmlns:rdf="http://www.w3.org/1999/02/22-rdf-syntax-ns#"
   xmlns:svg="http://www.w3.org/2000/svg"
   xmlns="http://www.w3.org/2000/svg"
   xmlns:sodipodi="http://sodipodi.sourceforge.net/DTD/sodipodi-0.dtd"
   xmlns:inkscape="http://www.inkscape.org/namespaces/inkscape"
   width="520mm"
   height="135mm"
   viewBox="0 0 137.58333 135"
   version="1.1"
   id="svg8"
   inkscape:version="0.92.4 (5da689c313, 2019-01-14)"
   sodipodi:docname="unanimity large logo.svg"
   inkscape:export-filename="D:\MAMP\htdocs\unanimityFIREBASE\unanimity\untouched images\unanimity-logo-large.png"
   inkscape:export-xdpi="96"
   inkscape:export-ydpi="96">
  <defs
     id="defs2" />
  <sodipodi:namedview
     id="base"
     pagecolor="#ffffff"
     bordercolor="#666666"
     borderopacity="1.0"
     inkscape:pageopacity="0.0"
     inkscape:pageshadow="2"
     inkscape:zoom="0.175"
     inkscape:cx="-571.26884"
     inkscape:cy="-144.11086"
     inkscape:document-units="mm"
     inkscape:current-layer="layer1"
     showgrid="false"
     units="mm"
     inkscape:window-width="1920"
     inkscape:window-height="1017"
     inkscape:window-x="-8"
     inkscape:window-y="-8"
     inkscape:window-maximized="1" />
  <metadata
     id="metadata5">
    <rdf:RDF>
      <cc:Work
         rdf:about="">
        <dc:format>image/svg+xml</dc:format>
        <dc:type
           rdf:resource="http://purl.org/dc/dcmitype/StillImage" />
        <dc:title></dc:title>
      </cc:Work>
    </rdf:RDF>
  </metadata>
  <g
     inkscape:label="Layer 1"
     inkscape:groupmode="layer"
     id="layer1"
     transform="translate(0,-162)">
    <g
       style="stroke-width:0.0821572"
       id="g953"
       transform="matrix(12.171788,0,0,12.171788,-5283.5083,4082.7073)">
      <path
         style="fill:#05386b;fill-opacity:1;stroke:none;stroke-width:0.02173742px;stroke-linecap:butt;stroke-linejoin:miter;stroke-opacity:1"
         d="m 422.95101,-322.00103 0.59501,0.003 0.002,4.13264 c 0.0158,0.0668 -0.0561,0.86854 -0.18736,1.08021 -0.002,0.53749 0.80642,2.45726 0.86446,2.56781 -0.32926,-0.16926 -1.8787,-1.09247 -2.03887,-1.19557 -0.14144,0.0813 1.8e-4,0.0294 -0.38924,0.16155 -0.41412,0.12383 -0.99077,0.14352 -1.35765,0.061 -0.16909,-0.0256 -0.35789,-0.0907 -0.53472,-0.17261 -0.31319,-0.14513 -0.61973,-0.39564 -0.66574,-0.4609 -0.0663,-0.0647 -0.36621,-0.34683 -0.59172,-0.92313 -0.21566,-0.56645 -0.19201,-1.14304 -0.19219,-1.14322 l 10e-4,-4.1103 0.59092,0.003 c 0.009,1.43503 -0.0166,2.89661 0.005,4.28362 0,0 0.0177,0.47849 0.16177,0.81387 0.0435,0.10126 0.0852,0.19077 0.12011,0.25521 0.1405,0.22883 0.37401,0.54036 0.68991,0.7142 0.0979,0.0539 0.20001,0.1 0.304,0.13981 0.51296,0.16391 0.94409,0.13526 1.37191,-0.005 0.14004,-0.054 0.30251,-0.13642 0.43718,-0.23711 0.25706,-0.19219 0.42832,-0.43845 0.42832,-0.43845 0.0269,-0.034 0.27614,-0.49292 0.26561,-0.53389 0,0 0.0793,-0.33533 0.10913,-0.57069 0.0102,0.28868 0.0257,-1.08394 0.0167,-1.24447 z"
         id="path887"
         inkscape:connector-curvature="0"
         sodipodi:nodetypes="ccccccccsccccccscsccscsccc" />
      <path
         style="fill:#05386b;fill-opacity:1;stroke:none;stroke-width:0.02173742px;stroke-linecap:butt;stroke-linejoin:miter;stroke-opacity:1"
         d="m 441.12996,-315.24836 c 0.29591,-1.75179 0.29964,-4.94704 1.58603,-4.95428 l -1.58031,0.0944 -1.60045,-0.0894 c 1.29807,-0.002 1.29838,3.19445 1.59473,4.9485 z"
         id="path889"
         inkscape:connector-curvature="0"
         sodipodi:nodetypes="cccccc" />
      <g
         aria-label="Harmony through words"
         style="font-style:normal;font-variant:normal;font-weight:normal;font-stretch:normal;font-size:3.19562006px;line-height:1.25;font-family:'Bellota Text';-inkscape-font-specification:'Bellota Text, Normal';font-variant-ligatures:normal;font-variant-caps:normal;font-variant-numeric:normal;font-feature-settings:normal;text-align:start;letter-spacing:0px;word-spacing:0px;writing-mode:lr-tb;text-anchor:start;fill:#000000;fill-opacity:1;stroke:none;stroke-width:0.02173742"
         id="g929">
        <path
           d="m 422.39205,-314.15629 h 0.19174 v 0.95868 h 1.17918 v -0.95868 h 0.19174 v 2.1858 h -0.19174 v -1.04816 h -1.17918 v 1.04816 h -0.19174 z"
           style="font-style:normal;font-variant:normal;font-weight:normal;font-stretch:normal;font-size:3.19562006px;font-family:'Bellota Text';-inkscape-font-specification:'Bellota Text, Normal';font-variant-ligatures:normal;font-variant-caps:normal;font-variant-numeric:normal;font-feature-settings:normal;text-align:start;writing-mode:lr-tb;text-anchor:start;stroke-width:0.02173742"
           id="path891"
           inkscape:connector-curvature="0" />
        <path
           d="m 425.60525,-311.94492 q -0.0607,-0.0479 -0.0991,-0.10546 -0.0351,-0.0575 -0.0671,-0.15019 -0.0639,0.12463 -0.19173,0.19493 -0.12463,0.0671 -0.30359,0.0671 -0.25245,0 -0.40584,-0.13422 -0.1502,-0.13422 -0.1502,-0.3643 0,-0.24287 0.16937,-0.37708 0.17257,-0.13422 0.48574,-0.13422 h 0.37069 v -0.11504 q 0,-0.19174 -0.0831,-0.28441 -0.0831,-0.0927 -0.25565,-0.0927 -0.12782,0 -0.26204,0.0479 -0.13421,0.0447 -0.23967,0.12463 l -0.0863,-0.14061 q 0.11824,-0.0991 0.27163,-0.15019 0.15658,-0.0543 0.31956,-0.0543 0.25884,0 0.39306,0.13422 0.13422,0.13102 0.13422,0.38028 v 0.66788 q 0,0.24606 0.12463,0.38028 z m -0.6583,-0.16618 q 0.2141,0 0.33873,-0.11823 0.12783,-0.11824 0.12783,-0.30678 v -0.23968 h -0.32595 q -0.27163,0 -0.38987,0.0799 -0.11824,0.0767 -0.11824,0.25565 0,0.15979 0.0959,0.24607 0.0959,0.0831 0.27163,0.0831 z"
           style="font-style:normal;font-variant:normal;font-weight:normal;font-stretch:normal;font-size:3.19562006px;font-family:'Bellota Text';-inkscape-font-specification:'Bellota Text, Normal';font-variant-ligatures:normal;font-variant-caps:normal;font-variant-numeric:normal;font-feature-settings:normal;text-align:start;writing-mode:lr-tb;text-anchor:start;stroke-width:0.02173742"
           id="path893"
           inkscape:connector-curvature="0" />
        <path
           d="m 426.72491,-313.60026 q 0.0959,0 0.19174,0.0288 v 0.17896 q -0.0927,-0.0224 -0.18535,-0.0224 -0.16297,0 -0.26523,0.0799 -0.10226,0.0799 -0.18215,0.22689 v 1.13764 h -0.19174 v -1.11847 q 0,-0.25245 -0.13422,-0.37069 l 0.12783,-0.12782 q 0.0575,0.0351 0.10865,0.10545 0.0511,0.0703 0.0735,0.15659 0.0895,-0.147 0.17895,-0.20133 0.11185,-0.0735 0.27802,-0.0735 z"
           style="font-style:normal;font-variant:normal;font-weight:normal;font-stretch:normal;font-size:3.19562006px;font-family:'Bellota Text';-inkscape-font-specification:'Bellota Text, Normal';font-variant-ligatures:normal;font-variant-caps:normal;font-variant-numeric:normal;font-feature-settings:normal;text-align:start;writing-mode:lr-tb;text-anchor:start;stroke-width:0.02173742"
           id="path895"
           inkscape:connector-curvature="0" />
        <path
           d="m 427.26557,-313.09854 q 0,-0.24607 -0.13102,-0.37709 l 0.11824,-0.11823 q 0.13741,0.10226 0.17576,0.27162 0.0895,-0.1406 0.2141,-0.20771 0.12783,-0.0703 0.27802,-0.0703 0.15659,0 0.27163,0.0735 0.11824,0.0735 0.17576,0.21411 0.0895,-0.14061 0.2205,-0.21411 0.13421,-0.0735 0.28441,-0.0735 0.2173,0 0.35471,0.14061 0.14061,0.14061 0.13741,0.38028 l -0.0128,1.10888 h -0.18535 l 0.006,-1.07373 q 0,-0.38347 -0.31637,-0.38347 -0.28122,0 -0.44739,0.31956 v 1.13764 h -0.19173 v -1.07373 q 0,-0.17895 -0.0799,-0.28121 -0.0767,-0.10546 -0.22688,-0.10546 -0.147,0 -0.27483,0.0927 -0.12463,0.0927 -0.17895,0.22369 v 1.14403 h -0.19174 z"
           style="font-style:normal;font-variant:normal;font-weight:normal;font-stretch:normal;font-size:3.19562006px;font-family:'Bellota Text';-inkscape-font-specification:'Bellota Text, Normal';font-variant-ligatures:normal;font-variant-caps:normal;font-variant-numeric:normal;font-feature-settings:normal;text-align:start;writing-mode:lr-tb;text-anchor:start;stroke-width:0.02173742"
           id="path897"
           inkscape:connector-curvature="0" />
        <path
           d="m 430.51087,-311.93853 q -0.22689,0 -0.40584,-0.10546 -0.17576,-0.10545 -0.27482,-0.294 -0.0991,-0.18854 -0.0991,-0.42821 0,-0.23967 0.0991,-0.42821 0.10226,-0.19174 0.27801,-0.29719 0.17896,-0.10866 0.40585,-0.10866 0.22369,0 0.39945,0.10866 0.17896,0.10545 0.27802,0.29399 0.10226,0.18854 0.10226,0.42822 0,0.23967 -0.10226,0.42821 -0.0991,0.18854 -0.27802,0.29719 -0.17576,0.10546 -0.40265,0.10546 z m 0.003,-0.17257 q 0.26523,0 0.42502,-0.18215 0.16297,-0.18215 0.16297,-0.47614 0,-0.19494 -0.0735,-0.34194 -0.0735,-0.15019 -0.20771,-0.23328 -0.13422,-0.0831 -0.30678,-0.0831 -0.17576,0 -0.30998,0.0831 -0.13421,0.0831 -0.20771,0.23648 -0.0735,0.15019 -0.0735,0.34193 0,0.19174 0.0735,0.34193 0.0735,0.147 0.20771,0.23009 0.13422,0.0831 0.30998,0.0831 z"
           style="font-style:normal;font-variant:normal;font-weight:normal;font-stretch:normal;font-size:3.19562006px;font-family:'Bellota Text';-inkscape-font-specification:'Bellota Text, Normal';font-variant-ligatures:normal;font-variant-caps:normal;font-variant-numeric:normal;font-feature-settings:normal;text-align:start;writing-mode:lr-tb;text-anchor:start;stroke-width:0.02173742"
           id="path899"
           inkscape:connector-curvature="0" />
        <path
           d="m 431.67827,-313.09854 q 0,-0.24607 -0.13102,-0.37709 l 0.12144,-0.11823 q 0.1406,0.0991 0.17895,0.2876 0.10546,-0.15019 0.23648,-0.2205 0.13102,-0.0735 0.31636,-0.0735 0.24926,0 0.38667,0.13422 0.14061,0.13422 0.13741,0.38667 l -0.01,1.10888 h -0.18535 l 0.003,-1.07373 q 0,-0.38347 -0.34833,-0.38347 -0.16297,0 -0.27801,0.0799 -0.11185,0.0767 -0.23648,0.24606 v 1.13125 h -0.19174 z"
           style="font-style:normal;font-variant:normal;font-weight:normal;font-stretch:normal;font-size:3.19562006px;font-family:'Bellota Text';-inkscape-font-specification:'Bellota Text, Normal';font-variant-ligatures:normal;font-variant-caps:normal;font-variant-numeric:normal;font-feature-settings:normal;text-align:start;writing-mode:lr-tb;text-anchor:start;stroke-width:0.02173742"
           id="path901"
           inkscape:connector-curvature="0" />
        <path
           d="m 433.3749,-311.29302 q 0.17895,0 0.27163,-0.0671 0.0447,-0.0288 0.0799,-0.0799 0.0351,-0.0479 0.0543,-0.10865 l 0.12143,-0.38028 -0.69984,-1.64894 h 0.20133 l 0.57521,1.41247 0.41863,-1.41247 h 0.19812 l -0.64871,2.08674 q -0.0575,0.17257 -0.18854,0.26204 -0.13741,0.0927 -0.3611,0.0927 z"
           style="font-style:normal;font-variant:normal;font-weight:normal;font-stretch:normal;font-size:3.19562006px;font-family:'Bellota Text';-inkscape-font-specification:'Bellota Text, Normal';font-variant-ligatures:normal;font-variant-caps:normal;font-variant-numeric:normal;font-feature-settings:normal;text-align:start;writing-mode:lr-tb;text-anchor:start;stroke-width:0.02173742"
           id="path903"
           inkscape:connector-curvature="0" />
        <path
           d="m 436.24426,-311.92575 q -0.23008,0 -0.34512,-0.12143 -0.11185,-0.12144 -0.11185,-0.38348 v -1.53709 h 0.19174 v 0.39945 h 0.50171 v 0.17256 h -0.50171 v 0.96508 q 0,0.20133 0.0735,0.26843 0.0767,0.0639 0.18854,0.0639 0.0671,0 0.11185,-0.006 0.0447,-0.01 0.0991,-0.0415 l 0.0863,0.147 q -0.11824,0.0735 -0.294,0.0735 z"
           style="font-style:normal;font-variant:normal;font-weight:normal;font-stretch:normal;font-size:3.19562006px;font-family:'Bellota Text';-inkscape-font-specification:'Bellota Text, Normal';font-variant-ligatures:normal;font-variant-caps:normal;font-variant-numeric:normal;font-feature-settings:normal;text-align:start;writing-mode:lr-tb;text-anchor:start;stroke-width:0.02173742"
           id="path905"
           inkscape:connector-curvature="0" />
        <path
           d="m 437.06564,-314.29051 v 0.95549 q 0.0991,-0.13741 0.23008,-0.20132 0.13102,-0.0639 0.30359,-0.0639 0.25884,0 0.38667,0.13742 0.13102,0.13421 0.13102,0.38347 v 1.10888 h -0.19174 v -1.07373 q 0,-0.17576 -0.0863,-0.27482 -0.0863,-0.10226 -0.25885,-0.10226 -0.15339,0 -0.27482,0.0799 -0.12143,0.0799 -0.23967,0.23967 v 1.13125 h -0.19174 v -2.32002 z"
           style="font-style:normal;font-variant:normal;font-weight:normal;font-stretch:normal;font-size:3.19562006px;font-family:'Bellota Text';-inkscape-font-specification:'Bellota Text, Normal';font-variant-ligatures:normal;font-variant-caps:normal;font-variant-numeric:normal;font-feature-settings:normal;text-align:start;writing-mode:lr-tb;text-anchor:start;stroke-width:0.02173742"
           id="path907"
           inkscape:connector-curvature="0" />
        <path
           d="m 439.24525,-313.60026 q 0.0959,0 0.19174,0.0288 v 0.17896 q -0.0927,-0.0224 -0.18535,-0.0224 -0.16297,0 -0.26523,0.0799 -0.10226,0.0799 -0.18215,0.22689 v 1.13764 h -0.19174 v -1.11847 q 0,-0.25245 -0.13422,-0.37069 l 0.12783,-0.12782 q 0.0575,0.0351 0.10865,0.10545 0.0511,0.0703 0.0735,0.15659 0.0895,-0.147 0.17895,-0.20133 0.11185,-0.0735 0.27802,-0.0735 z"
           style="font-style:normal;font-variant:normal;font-weight:normal;font-stretch:normal;font-size:3.19562006px;font-family:'Bellota Text';-inkscape-font-specification:'Bellota Text, Normal';font-variant-ligatures:normal;font-variant-caps:normal;font-variant-numeric:normal;font-feature-settings:normal;text-align:start;writing-mode:lr-tb;text-anchor:start;stroke-width:0.02173742"
           id="path909"
           inkscape:connector-curvature="0" />
        <path
           d="m 440.3786,-311.93853 q -0.22689,0 -0.40585,-0.10546 -0.17575,-0.10545 -0.27482,-0.294 -0.0991,-0.18854 -0.0991,-0.42821 0,-0.23967 0.0991,-0.42821 0.10226,-0.19174 0.27802,-0.29719 0.17895,-0.10866 0.40584,-0.10866 0.2237,0 0.39946,0.10866 0.17895,0.10545 0.27801,0.29399 0.10226,0.18854 0.10226,0.42822 0,0.23967 -0.10226,0.42821 -0.0991,0.18854 -0.27801,0.29719 -0.17576,0.10546 -0.40265,0.10546 z m 0.003,-0.17257 q 0.26524,0 0.42502,-0.18215 0.16298,-0.18215 0.16298,-0.47614 0,-0.19494 -0.0735,-0.34194 -0.0735,-0.15019 -0.20772,-0.23328 -0.13421,-0.0831 -0.30678,-0.0831 -0.17576,0 -0.30997,0.0831 -0.13422,0.0831 -0.20772,0.23648 -0.0735,0.15019 -0.0735,0.34193 0,0.19174 0.0735,0.34193 0.0735,0.147 0.20772,0.23009 0.13421,0.0831 0.30997,0.0831 z"
           style="font-style:normal;font-variant:normal;font-weight:normal;font-stretch:normal;font-size:3.19562006px;font-family:'Bellota Text';-inkscape-font-specification:'Bellota Text, Normal';font-variant-ligatures:normal;font-variant-caps:normal;font-variant-numeric:normal;font-feature-settings:normal;text-align:start;writing-mode:lr-tb;text-anchor:start;stroke-width:0.02173742"
           id="path911"
           inkscape:connector-curvature="0" />
        <path
           d="m 442.07253,-311.94492 q -0.26844,0 -0.40904,-0.13422 -0.13742,-0.13422 -0.13742,-0.38347 v -1.10569 h 0.19174 v 1.07053 q 0,0.17896 0.0831,0.28122 0.0831,0.0991 0.28121,0.0991 0.16617,0 0.27483,-0.0799 0.11184,-0.0831 0.23328,-0.24926 v -1.12166 h 0.19173 v 1.12805 q 0,0.24926 0.12463,0.37709 l -0.11824,0.11504 q -0.0703,-0.0511 -0.11823,-0.13102 -0.0447,-0.0831 -0.0607,-0.16617 -0.10226,0.15978 -0.23648,0.23008 -0.13102,0.0703 -0.30038,0.0703 z"
           style="font-style:normal;font-variant:normal;font-weight:normal;font-stretch:normal;font-size:3.19562006px;font-family:'Bellota Text';-inkscape-font-specification:'Bellota Text, Normal';font-variant-ligatures:normal;font-variant-caps:normal;font-variant-numeric:normal;font-feature-settings:normal;text-align:start;writing-mode:lr-tb;text-anchor:start;stroke-width:0.02173742"
           id="path913"
           inkscape:connector-curvature="0" />
        <path
           d="m 443.99894,-311.14922 q -0.735,0 -0.735,-0.60397 0,-0.0511 0.016,-0.18854 l 0.01,-0.0863 q -0.0639,-0.0511 -0.10546,-0.12783 -0.0383,-0.0767 -0.0383,-0.16297 0,-0.0895 0.0479,-0.18535 0.0479,-0.0959 0.16298,-0.147 0.0383,-0.016 0.0767,-0.0224 0.0415,-0.006 0.11185,-0.01 -0.12144,-0.147 -0.12144,-0.34833 0,-0.17575 0.0799,-0.30358 0.0831,-0.13102 0.2205,-0.20132 0.13741,-0.0703 0.30359,-0.0703 0.12463,0 0.22369,0.0447 h 0.52728 v 0.16298 l -0.2908,-0.0192 q 0.1438,0.15339 0.1438,0.38028 0,0.26204 -0.16937,0.41224 -0.16617,0.147 -0.4346,0.147 -0.17576,0 -0.30998,-0.0671 -0.0703,-0.006 -0.12463,-0.006 -0.0703,0 -0.10865,0.01 -0.0543,0.016 -0.10545,0.0735 -0.0479,0.0575 -0.0479,0.147 0,0.10226 0.0735,0.14381 0.0735,0.0415 0.2173,0.0415 l 0.2173,-0.006 0.27163,-0.006 q 0.32596,0 0.5145,0.11823 0.19173,0.11824 0.19173,0.35791 0,0.27163 -0.23647,0.39626 -0.23328,0.12782 -0.5816,0.12782 z m 0.0351,-1.49555 q 0.19813,0 0.30039,-0.10865 0.10545,-0.10865 0.10545,-0.28121 0,-0.18535 -0.11504,-0.2908 -0.11185,-0.10865 -0.30039,-0.10865 -0.19174,0 -0.30039,0.10865 -0.10865,0.10865 -0.10865,0.2908 0,0.18854 0.11504,0.2908 0.11505,0.0991 0.30359,0.0991 z m -0.0351,1.32299 q 0.62634,0 0.62634,-0.34513 0,-0.30997 -0.52728,-0.30997 -0.147,0 -0.26204,0.006 l -0.14061,0.003 q -0.15658,0 -0.24606,-0.016 l 0.006,0.21091 q 0.006,0.17576 0.0639,0.27163 0.0575,0.0991 0.16937,0.13741 0.11504,0.0415 0.30998,0.0415 z"
           style="font-style:normal;font-variant:normal;font-weight:normal;font-stretch:normal;font-size:3.19562006px;font-family:'Bellota Text';-inkscape-font-specification:'Bellota Text, Normal';font-variant-ligatures:normal;font-variant-caps:normal;font-variant-numeric:normal;font-feature-settings:normal;text-align:start;writing-mode:lr-tb;text-anchor:start;stroke-width:0.02173742"
           id="path915"
           inkscape:connector-curvature="0" />
        <path
           d="m 445.32307,-314.29051 v 0.95549 q 0.0991,-0.13741 0.23009,-0.20132 0.13102,-0.0639 0.30358,-0.0639 0.25885,0 0.38667,0.13742 0.13102,0.13421 0.13102,0.38347 v 1.10888 h -0.19174 v -1.07373 q 0,-0.17576 -0.0863,-0.27482 -0.0863,-0.10226 -0.25884,-0.10226 -0.15339,0 -0.27483,0.0799 -0.12143,0.0799 -0.23967,0.23967 v 1.13125 h -0.19174 v -2.32002 z"
           style="font-style:normal;font-variant:normal;font-weight:normal;font-stretch:normal;font-size:3.19562006px;font-family:'Bellota Text';-inkscape-font-specification:'Bellota Text, Normal';font-variant-ligatures:normal;font-variant-caps:normal;font-variant-numeric:normal;font-feature-settings:normal;text-align:start;writing-mode:lr-tb;text-anchor:start;stroke-width:0.02173742"
           id="path917"
           inkscape:connector-curvature="0" />
        <path
           d="m 447.69217,-313.29987 q -0.0192,-0.0575 -0.0639,-0.10865 -0.0447,-0.0543 -0.0895,-0.0799 l 0.0895,-0.13422 q 0.17576,0.11824 0.24926,0.34833 l 0.33873,1.02579 0.43141,-1.31979 h 0.17896 l 0.43141,1.31979 0.43141,-1.31979 h 0.17895 l -0.52089,1.59461 h -0.17895 l -0.43141,-1.31979 -0.43141,1.31979 h -0.18215 z"
           style="font-style:normal;font-variant:normal;font-weight:normal;font-stretch:normal;font-size:3.19562006px;font-family:'Bellota Text';-inkscape-font-specification:'Bellota Text, Normal';font-variant-ligatures:normal;font-variant-caps:normal;font-variant-numeric:normal;font-feature-settings:normal;text-align:start;writing-mode:lr-tb;text-anchor:start;stroke-width:0.02173742"
           id="path919"
           inkscape:connector-curvature="0" />
        <path
           d="m 450.86423,-311.93853 q -0.22689,0 -0.40585,-0.10546 -0.17576,-0.10545 -0.27482,-0.294 -0.0991,-0.18854 -0.0991,-0.42821 0,-0.23967 0.0991,-0.42821 0.10226,-0.19174 0.27802,-0.29719 0.17895,-0.10866 0.40584,-0.10866 0.2237,0 0.39945,0.10866 0.17896,0.10545 0.27802,0.29399 0.10226,0.18854 0.10226,0.42822 0,0.23967 -0.10226,0.42821 -0.0991,0.18854 -0.27802,0.29719 -0.17575,0.10546 -0.40264,0.10546 z m 0.003,-0.17257 q 0.26524,0 0.42502,-0.18215 0.16298,-0.18215 0.16298,-0.47614 0,-0.19494 -0.0735,-0.34194 -0.0735,-0.15019 -0.20772,-0.23328 -0.13421,-0.0831 -0.30678,-0.0831 -0.17576,0 -0.30997,0.0831 -0.13422,0.0831 -0.20772,0.23648 -0.0735,0.15019 -0.0735,0.34193 0,0.19174 0.0735,0.34193 0.0735,0.147 0.20772,0.23009 0.13421,0.0831 0.30997,0.0831 z"
           style="font-style:normal;font-variant:normal;font-weight:normal;font-stretch:normal;font-size:3.19562006px;font-family:'Bellota Text';-inkscape-font-specification:'Bellota Text, Normal';font-variant-ligatures:normal;font-variant-caps:normal;font-variant-numeric:normal;font-feature-settings:normal;text-align:start;writing-mode:lr-tb;text-anchor:start;stroke-width:0.02173742"
           id="path921"
           inkscape:connector-curvature="0" />
        <path
           d="m 452.66436,-313.60026 q 0.0959,0 0.19174,0.0288 v 0.17896 q -0.0927,-0.0224 -0.18535,-0.0224 -0.16298,0 -0.26524,0.0799 -0.10226,0.0799 -0.18215,0.22689 v 1.13764 h -0.19173 v -1.11847 q 0,-0.25245 -0.13422,-0.37069 l 0.12782,-0.12782 q 0.0575,0.0351 0.10866,0.10545 0.0511,0.0703 0.0735,0.15659 0.0895,-0.147 0.17895,-0.20133 0.11185,-0.0735 0.27802,-0.0735 z"
           style="font-style:normal;font-variant:normal;font-weight:normal;font-stretch:normal;font-size:3.19562006px;font-family:'Bellota Text';-inkscape-font-specification:'Bellota Text, Normal';font-variant-ligatures:normal;font-variant-caps:normal;font-variant-numeric:normal;font-feature-settings:normal;text-align:start;writing-mode:lr-tb;text-anchor:start;stroke-width:0.02173742"
           id="path923"
           inkscape:connector-curvature="0" />
        <path
           d="m 453.68905,-311.93853 q -0.2141,0 -0.36749,-0.10865 -0.15339,-0.11185 -0.23328,-0.2972 -0.0799,-0.18854 -0.0799,-0.41223 0,-0.24287 0.0895,-0.43141 0.0927,-0.19174 0.26844,-0.29719 0.17576,-0.10865 0.41862,-0.10865 0.0735,0 0.18535,0.01 0.11504,0.006 0.20132,0.0192 v -0.72861 h 0.17576 v 1.86305 q 0,0.24606 0.12463,0.38028 l -0.10865,0.10546 q -0.12463,-0.0927 -0.16937,-0.27483 -0.0735,0.14381 -0.21091,0.21411 -0.13421,0.0671 -0.294,0.0671 z m 0.01,-0.16618 q 0.1438,0 0.25565,-0.0703 0.11504,-0.0703 0.17256,-0.19174 0.0447,-0.0895 0.0447,-0.20452 v -0.82447 q -0.17576,-0.0224 -0.25565,-0.0256 -0.0767,-0.006 -0.15978,-0.006 -0.17576,0 -0.30358,0.0863 -0.12783,0.0863 -0.19493,0.23967 -0.0671,0.1502 -0.0671,0.33554 0,0.27802 0.13421,0.46976 0.13422,0.19173 0.37389,0.19173 z"
           style="font-style:normal;font-variant:normal;font-weight:normal;font-stretch:normal;font-size:3.19562006px;font-family:'Bellota Text';-inkscape-font-specification:'Bellota Text, Normal';font-variant-ligatures:normal;font-variant-caps:normal;font-variant-numeric:normal;font-feature-settings:normal;text-align:start;writing-mode:lr-tb;text-anchor:start;stroke-width:0.02173742"
           id="path925"
           inkscape:connector-curvature="0" />
        <path
           d="m 455.31523,-311.93214 q -0.32276,0 -0.60078,-0.24926 l 0.10545,-0.12783 q 0.12144,0.0991 0.23968,0.15339 0.12143,0.0511 0.25884,0.0511 0.17256,0 0.26843,-0.0799 0.0991,-0.0831 0.0991,-0.22369 0,-0.0895 -0.0447,-0.1438 -0.0415,-0.0575 -0.11504,-0.0927 -0.0703,-0.0351 -0.25565,-0.11184 -0.16937,-0.0703 -0.26204,-0.12144 -0.0927,-0.0511 -0.147,-0.12462 -0.0543,-0.0767 -0.0543,-0.19174 0,-0.18854 0.13422,-0.30039 0.13421,-0.11504 0.35791,-0.11504 0.11504,0 0.22689,0.0319 0.11504,0.032 0.19493,0.0927 l -0.0799,0.13741 q -0.147,-0.0895 -0.33235,-0.0895 -0.14699,0 -0.22689,0.0575 -0.0799,0.0575 -0.0799,0.16298 0,0.0799 0.0416,0.13102 0.0447,0.0511 0.11184,0.0863 0.0703,0.032 0.23009,0.0959 0.18215,0.0735 0.28121,0.13422 0.10226,0.0575 0.15659,0.1438 0.0575,0.0831 0.0575,0.20771 0,0.2205 -0.15659,0.35472 -0.15339,0.13102 -0.40903,0.13102 z"
           style="font-style:normal;font-variant:normal;font-weight:normal;font-stretch:normal;font-size:3.19562006px;font-family:'Bellota Text';-inkscape-font-specification:'Bellota Text, Normal';font-variant-ligatures:normal;font-variant-caps:normal;font-variant-numeric:normal;font-feature-settings:normal;text-align:start;writing-mode:lr-tb;text-anchor:start;stroke-width:0.02173742"
           id="path927"
           inkscape:connector-curvature="0" />
      </g>
      <ellipse
         style="opacity:1;fill:#05386b;fill-opacity:1;fill-rule:evenodd;stroke:none;stroke-width:0.04929432;stroke-linecap:round;stroke-linejoin:round;stroke-miterlimit:4;stroke-dasharray:none;stroke-opacity:1;paint-order:markers fill stroke"
         id="ellipse931"
         cx="451.31131"
         cy="-321.25174"
         rx="0.41294166"
         ry="0.43408206" />
      <ellipse
         style="opacity:1;fill:#05386b;fill-opacity:1;fill-rule:evenodd;stroke:none;stroke-width:0.04929432;stroke-linecap:round;stroke-linejoin:round;stroke-miterlimit:4;stroke-dasharray:none;stroke-opacity:1;paint-order:markers fill stroke"
         id="ellipse933"
         cx="441.11548"
         cy="-321.25174"
         rx="0.41294166"
         ry="0.43408206" />
      <path
         style="fill:#05386b;fill-opacity:1;stroke:none;stroke-width:0.02173742px;stroke-linecap:butt;stroke-linejoin:miter;stroke-opacity:1"
         d="m 451.33424,-315.24764 c 0.29591,-1.75179 0.29964,-4.94704 1.58603,-4.95428 l -1.58031,0.0944 -1.60045,-0.0894 c 1.29807,-0.002 1.29838,3.19445 1.59473,4.9485 z"
         id="path935"
         inkscape:connector-curvature="0"
         sodipodi:nodetypes="cccccc" />
      <g
         aria-label="nan m ty "
         transform="matrix(26.306462,0,0,26.306462,-19133.978,-22695.056)"
         style="font-style:normal;font-variant:normal;font-weight:normal;font-stretch:normal;font-size:0.37584525px;line-height:1.25;font-family:'Bellota Text';-inkscape-font-specification:'Bellota Text, Normal';font-variant-ligatures:normal;font-variant-caps:normal;font-variant-numeric:normal;font-feature-settings:normal;text-align:start;letter-spacing:0px;word-spacing:0px;writing-mode:lr-tb;text-anchor:start;fill:#000000;fill-opacity:1;stroke:none;stroke-width:0.00082632"
         id="g949">
        <path
           d="m 743.5046,850.6039 q 0,-0.0289 -0.0154,-0.0444 l 0.0143,-0.0139 q 0.0165,0.0117 0.021,0.0338 0.0124,-0.0177 0.0278,-0.0259 0.0154,-0.009 0.0372,-0.009 0.0293,0 0.0455,0.0158 0.0165,0.0158 0.0162,0.0455 l -10e-4,0.13041 h -0.0218 l 3.7e-4,-0.12628 q 0,-0.0451 -0.041,-0.0451 -0.0192,0 -0.0327,0.009 -0.0132,0.009 -0.0278,0.0289 v 0.13304 h -0.0226 z"
           style="font-style:normal;font-variant:normal;font-weight:normal;font-stretch:normal;font-size:0.37584525px;font-family:'Bellota Text';-inkscape-font-specification:'Bellota Text, Normal';font-variant-ligatures:normal;font-variant-caps:normal;font-variant-numeric:normal;font-feature-settings:normal;text-align:start;writing-mode:lr-tb;text-anchor:start;stroke-width:0.00082632"
           id="path937"
           inkscape:connector-curvature="0" />
        <path
           d="m 743.83419,850.73958 q -0.007,-0.006 -0.0117,-0.0124 -0.004,-0.007 -0.008,-0.0177 -0.008,0.0147 -0.0226,0.0229 -0.0147,0.008 -0.0357,0.008 -0.0297,0 -0.0477,-0.0158 -0.0177,-0.0158 -0.0177,-0.0429 0,-0.0286 0.0199,-0.0444 0.0203,-0.0158 0.0571,-0.0158 h 0.0436 v -0.0135 q 0,-0.0225 -0.01,-0.0335 -0.01,-0.0109 -0.0301,-0.0109 -0.015,0 -0.0308,0.006 -0.0158,0.005 -0.0282,0.0147 l -0.0102,-0.0165 q 0.0139,-0.0117 0.032,-0.0177 0.0184,-0.006 0.0376,-0.006 0.0304,0 0.0462,0.0158 0.0158,0.0154 0.0158,0.0447 v 0.0786 q 0,0.0289 0.0147,0.0447 z m -0.0774,-0.0195 q 0.0252,0 0.0398,-0.0139 0.015,-0.0139 0.015,-0.0361 v -0.0282 h -0.0383 q -0.0319,0 -0.0458,0.009 -0.0139,0.009 -0.0139,0.0301 0,0.0188 0.0113,0.0289 0.0113,0.01 0.0319,0.01 z"
           style="font-style:normal;font-variant:normal;font-weight:normal;font-stretch:normal;font-size:0.37584525px;font-family:'Bellota Text';-inkscape-font-specification:'Bellota Text, Normal';font-variant-ligatures:normal;font-variant-caps:normal;font-variant-numeric:normal;font-feature-settings:normal;text-align:start;writing-mode:lr-tb;text-anchor:start;stroke-width:0.00082632"
           id="path939"
           inkscape:connector-curvature="0" />
        <path
           d="m 743.89146,850.6039 q 0,-0.0289 -0.0154,-0.0444 l 0.0143,-0.0139 q 0.0165,0.0117 0.0211,0.0338 0.0124,-0.0177 0.0278,-0.0259 0.0154,-0.009 0.0372,-0.009 0.0293,0 0.0455,0.0158 0.0165,0.0158 0.0162,0.0455 l -10e-4,0.13041 h -0.0218 l 3.8e-4,-0.12628 q 0,-0.0451 -0.041,-0.0451 -0.0192,0 -0.0327,0.009 -0.0131,0.009 -0.0278,0.0289 v 0.13304 h -0.0225 z"
           style="font-style:normal;font-variant:normal;font-weight:normal;font-stretch:normal;font-size:0.37584525px;font-family:'Bellota Text';-inkscape-font-specification:'Bellota Text, Normal';font-variant-ligatures:normal;font-variant-caps:normal;font-variant-numeric:normal;font-feature-settings:normal;text-align:start;writing-mode:lr-tb;text-anchor:start;stroke-width:0.00082632"
           id="path941"
           inkscape:connector-curvature="0" />
        <path
           d="m 744.20124,850.6039 q 0,-0.0289 -0.0154,-0.0444 l 0.0139,-0.0139 q 0.0162,0.012 0.0207,0.0319 0.0105,-0.0165 0.0252,-0.0244 0.015,-0.008 0.0327,-0.008 0.0184,0 0.0319,0.009 0.0139,0.009 0.0207,0.0252 0.0105,-0.0165 0.0259,-0.0252 0.0158,-0.009 0.0335,-0.009 0.0256,0 0.0417,0.0165 0.0165,0.0165 0.0162,0.0447 l -0.001,0.13041 h -0.0218 l 7.5e-4,-0.12628 q 0,-0.0451 -0.0372,-0.0451 -0.0331,0 -0.0526,0.0376 v 0.1338 h -0.0226 v -0.12628 q 0,-0.021 -0.009,-0.0331 -0.009,-0.0124 -0.0267,-0.0124 -0.0173,0 -0.0323,0.0109 -0.0147,0.0109 -0.021,0.0263 v 0.13455 h -0.0226 z"
           style="font-style:normal;font-variant:normal;font-weight:normal;font-stretch:normal;font-size:0.37584525px;font-family:'Bellota Text';-inkscape-font-specification:'Bellota Text, Normal';font-variant-ligatures:normal;font-variant-caps:normal;font-variant-numeric:normal;font-feature-settings:normal;text-align:start;writing-mode:lr-tb;text-anchor:start;stroke-width:0.00082632"
           id="path943"
           inkscape:connector-curvature="0" />
        <path
           d="m 744.65971,850.74184 q -0.0271,0 -0.0406,-0.0143 -0.0132,-0.0143 -0.0132,-0.0451 v -0.18078 h 0.0226 v 0.047 h 0.059 v 0.0203 h -0.059 v 0.1135 q 0,0.0237 0.009,0.0316 0.009,0.008 0.0222,0.008 0.008,0 0.0132,-7.5e-4 0.005,-10e-4 0.0116,-0.005 l 0.0102,0.0173 q -0.0139,0.009 -0.0346,0.009 z"
           style="font-style:normal;font-variant:normal;font-weight:normal;font-stretch:normal;font-size:0.37584525px;font-family:'Bellota Text';-inkscape-font-specification:'Bellota Text, Normal';font-variant-ligatures:normal;font-variant-caps:normal;font-variant-numeric:normal;font-feature-settings:normal;text-align:start;writing-mode:lr-tb;text-anchor:start;stroke-width:0.00082632"
           id="path945"
           inkscape:connector-curvature="0" />
        <path
           d="m 744.73038,850.81625 q 0.0211,0 0.032,-0.008 0.005,-0.003 0.009,-0.009 0.004,-0.006 0.006,-0.0128 l 0.0143,-0.0447 -0.0823,-0.19394 h 0.0237 l 0.0677,0.16613 0.0492,-0.16613 h 0.0233 l -0.0763,0.24543 q -0.007,0.0203 -0.0222,0.0308 -0.0162,0.0109 -0.0425,0.0109 z"
           style="font-style:normal;font-variant:normal;font-weight:normal;font-stretch:normal;font-size:0.37584525px;font-family:'Bellota Text';-inkscape-font-specification:'Bellota Text, Normal';font-variant-ligatures:normal;font-variant-caps:normal;font-variant-numeric:normal;font-feature-settings:normal;text-align:start;writing-mode:lr-tb;text-anchor:start;stroke-width:0.00082632"
           id="path947"
           inkscape:connector-curvature="0" />
      </g>
      <path
         style="opacity:1;fill:#05386b;fill-opacity:1;fill-rule:evenodd;stroke:none;stroke-width:0.04929433;stroke-linecap:round;stroke-linejoin:round;stroke-miterlimit:4;stroke-dasharray:none;stroke-opacity:1;paint-order:markers fill stroke"
         d="m 424.94516,-315.25641 h 36.06048 v 0.33429 h -36.06048 z"
         id="path951"
         inkscape:connector-curvature="0" />
    </g>
  </g>
</svg>
