<?xml version="1.0" encoding="UTF-8" standalone="no"?>
<!-- Created with Inkscape (http://www.inkscape.org/) -->

<svg
   xmlns:dc="http://purl.org/dc/elements/1.1/"
   xmlns:cc="http://creativecommons.org/ns#"
   xmlns:rdf="http://www.w3.org/1999/02/22-rdf-syntax-ns#"
   xmlns:svg="http://www.w3.org/2000/svg"
   xmlns="http://www.w3.org/2000/svg"
   xmlns:sodipodi="http://sodipodi.sourceforge.net/DTD/sodipodi-0.dtd"
   xmlns:inkscape="http://www.inkscape.org/namespaces/inkscape"
   width="100mm"
   height="91mm"
   viewBox="0 0 100 91"
   version="1.1"
   id="svg8"
   inkscape:version="0.92.4 (5da689c313, 2019-01-14)"
   sodipodi:docname="textingDrawing.svg">
  <defs
     id="defs2" />
  <sodipodi:namedview
     id="base"
     pagecolor="#ffffff"
     bordercolor="#666666"
     borderopacity="1.0"
     inkscape:pageopacity="0.0"
     inkscape:pageshadow="2"
     inkscape:zoom="0.98994949"
     inkscape:cx="46.433527"
     inkscape:cy="213.57355"
     inkscape:document-units="mm"
     inkscape:current-layer="layer1"
     showgrid="false"
     inkscape:pagecheckerboard="true"
     inkscape:window-width="2560"
     inkscape:window-height="1017"
     inkscape:window-x="1912"
     inkscape:window-y="-8"
     inkscape:window-maximized="1" />
  <metadata
     id="metadata5">
    <rdf:RDF>
      <cc:Work
         rdf:about="">
        <dc:format>image/svg+xml</dc:format>
        <dc:type
           rdf:resource="http://purl.org/dc/dcmitype/StillImage" />
        <dc:title></dc:title>
      </cc:Work>
    </rdf:RDF>
  </metadata>
  <g
     inkscape:label="Layer 1"
     inkscape:groupmode="layer"
     id="layer1"
     transform="translate(0,-206)">
    <g
       id="g1327"
       transform="translate(0.33705751)">
      <path
         style="fill:#1a233b;fill-opacity:1;stroke-width:0.26458332"
         inkscape:connector-curvature="0"
         d="m 72.804724,227.68983 h -0.49733 v -13.62416 a 7.8852951,7.8852951 0 0 0 -7.88529,-7.88531 H 35.557453 a 7.8852963,7.8852963 0 0 0 -7.88531,7.88528 v 74.74325 a 7.8852988,7.8852988 0 0 0 7.88528,7.8853 h 28.864641 a 7.8852963,7.8852963 0 0 0 7.88532,-7.88527 v -51.42118 h 0.49733 z"
         id="path2791" />
      <path
         style="fill:#ffffff;stroke-width:0.26458332"
         inkscape:connector-curvature="0"
         d="m 70.629044,214.12069 v 74.63326 a 5.8890143,5.8890143 0 0 1 -5.88893,5.88892 H 35.737003 a 5.8890304,5.8890304 0 0 1 -5.888919,-5.88892 v -74.63326 a 5.8890354,5.8890354 0 0 1 5.888919,-5.88893 h 3.518431 a 2.7991496,2.7991496 0 0 0 2.590629,3.85423 h 16.536251 a 2.7991632,2.7991632 0 0 0 2.590629,-3.85423 h 3.767171 a 5.8890342,5.8890342 0 0 1 5.88893,5.88893 z"
         id="path2793" />
      <path
         style="fill:#6c8196;fill-opacity:1;stroke-width:0.26458332"
         inkscape:connector-curvature="0"
         d="m 37.283023,215.15381 a 3.9798435,3.9798435 0 0 0 -3e-5,7.95968 h 3e-5 a 3.9798435,3.9798435 0 0 0 0,-7.95968 z"
         id="path2795" />
      <path
         style="fill:#6c8196;fill-opacity:1;stroke-width:0.26458332"
         inkscape:connector-curvature="0"
         d="m 66.178983,222.49167 h -20.89417 a 0.994965,0.994965 0 1 1 0,-1.98993 h 20.89417 a 0.994965,0.994965 0 0 1 0,1.98993 z"
         id="path2797" />
      <path
         style="fill:#6c8196;fill-opacity:1;stroke-width:0.26458332"
         inkscape:connector-curvature="0"
         d="m 51.876424,218.26308 h -6.591611 a 0.99496088,0.99496088 0 1 1 0,-1.98992 h 6.591611 a 0.99496088,0.99496088 0 0 1 0,1.98992 z"
         id="path2799" />
      <path
         style="fill:#6c8196;fill-opacity:1;stroke-width:0.26458332"
         inkscape:connector-curvature="0"
         d="m 37.283023,231.8194 a 3.979845,3.979845 0 0 0 -3e-5,7.95969 h 3e-5 a 3.979845,3.979845 0 0 0 0,-7.95969 z"
         id="path2801" />
      <path
         style="fill:#6c8196;fill-opacity:1;stroke-width:0.26458332"
         inkscape:connector-curvature="0"
         d="m 66.178983,239.15726 h -20.89417 a 0.99496088,0.99496088 0 1 1 0,-1.98992 h 20.89417 a 0.99496088,0.99496088 0 0 1 0,1.98992 z"
         id="path2803" />
      <path
         style="fill:#6c8196;fill-opacity:1;stroke-width:0.26458332"
         inkscape:connector-curvature="0"
         d="m 51.876424,234.92868 h -6.591611 a 0.99496088,0.99496088 0 1 1 0,-1.98992 h 6.591611 a 0.99496088,0.99496088 0 0 1 0,1.98992 z"
         id="path2805" />
      <path
         style="fill:#6c8196;fill-opacity:1;stroke-width:0.26458332"
         inkscape:connector-curvature="0"
         d="m 37.283023,265.15059 a 3.979845,3.979845 0 0 0 -3e-5,7.95969 h 3e-5 a 3.979845,3.979845 0 0 0 0,-7.95969 z"
         id="path2807" />
      <path
         style="fill:#6c8196;fill-opacity:1;stroke-width:0.26458332"
         inkscape:connector-curvature="0"
         d="m 66.178983,272.48845 h -20.89417 a 0.99496088,0.99496088 0 1 1 0,-1.98992 h 20.89417 a 0.99496088,0.99496088 0 0 1 0,1.98992 z"
         id="path2809" />
      <path
         style="fill:#6c8196;fill-opacity:1;stroke-width:0.26458332"
         inkscape:connector-curvature="0"
         d="m 51.876424,268.25987 h -6.591611 a 0.99496088,0.99496088 0 1 1 0,-1.98992 h 6.591611 a 0.99496088,0.99496088 0 0 1 0,1.98992 z"
         id="path2811" />
      <path
         style="fill:#6c8196;fill-opacity:1;stroke-width:0.26458332"
         inkscape:connector-curvature="0"
         d="m 37.283023,281.81619 a 3.9798435,3.9798435 0 0 0 -3e-5,7.95968 h 3e-5 a 3.9798435,3.9798435 0 0 0 0,-7.95968 z"
         id="path2813" />
      <path
         style="fill:#6c8196;fill-opacity:1;stroke-width:0.26458332"
         inkscape:connector-curvature="0"
         d="m 66.178983,289.15405 h -20.89417 a 0.994965,0.994965 0 1 1 0,-1.98993 h 20.89417 a 0.994965,0.994965 0 0 1 0,1.98993 z"
         id="path2815" />
      <path
         style="fill:#6c8196;fill-opacity:1;stroke-width:0.26458332"
         inkscape:connector-curvature="0"
         d="m 51.876424,284.92546 h -6.591611 a 0.99496088,0.99496088 0 1 1 0,-1.98992 h 6.591611 a 0.99496088,0.99496088 0 0 1 0,1.98992 z"
         id="path2817" />
      <path
         style="fill:#ffffff;stroke-width:0.26458332"
         inkscape:connector-curvature="0"
         d="M 74.241994,262.04136 H 26.235133 a 2.0544288,2.0544288 0 0 1 -2.05211,-2.05211 v -15.42189 a 2.05443,2.05443 0 0 1 2.05211,-2.05211 h 48.006861 a 2.0544288,2.0544288 0 0 1 2.05211,2.05211 v 15.42189 a 2.0544276,2.0544276 0 0 1 -2.05211,2.05211 z"
         id="path2819" />
      <path
         style="fill:#3f3d56;stroke-width:0.26458332"
         inkscape:connector-curvature="0"
         d="m 32.130693,257.96527 a 5.6869576,5.6869576 0 1 1 5.68696,-5.68695 5.6934149,5.6934149 0 0 1 -5.68696,5.68695 z m 0,-11.12517 a 5.4382174,5.4382174 0 1 0 5.43822,5.43822 5.44437,5.44437 0 0 0 -5.43822,-5.43822 z"
         id="path2821" />
      <path
         style="fill:#0000ff;fill-opacity:1;stroke-width:0.26458332"
         inkscape:connector-curvature="0"
         d="m 72.518384,256.83816 h -29.20365 a 1.3906506,1.3906506 0 1 1 0,-2.7813 h 29.20365 a 1.3906506,1.3906506 0 1 1 0,2.7813 z"
         id="path2823" />
      <path
         style="fill:#0000ff;fill-opacity:1;stroke-width:0.26458332"
         inkscape:connector-curvature="0"
         d="m 52.527794,251.06152 h -9.21306 a 1.3906506,1.3906506 0 1 1 0,-2.7813 h 9.21306 a 1.3906506,1.3906506 0 1 1 0,2.7813 z"
         id="path2825" />
      <path
         style="fill:#3f3d56;stroke-width:0.26458332"
         inkscape:connector-curvature="0"
         d="M 74.241994,262.04136 H 26.235133 a 2.0544288,2.0544288 0 0 1 -2.05211,-2.05211 v -15.42189 a 2.05443,2.05443 0 0 1 2.05211,-2.05211 h 48.006861 a 2.0544288,2.0544288 0 0 1 2.05211,2.05211 v 15.42189 a 2.0544276,2.0544276 0 0 1 -2.05211,2.05211 z M 26.235133,242.63962 a 1.9299169,1.9299169 0 0 0 -1.92774,1.92774 v 15.42189 a 1.9299157,1.9299157 0 0 0 1.92774,1.92774 h 48.006861 a 1.9299157,1.9299157 0 0 0 1.92774,-1.92774 v -15.42189 a 1.9299169,1.9299169 0 0 0 -1.92774,-1.92774 z"
         id="path2827" />
      <circle
         style="fill:#2f2e41;stroke-width:0.26458332"
         cx="32.030216"
         cy="252.72583"
         r="2.3200285"
         id="circle2829" />
      <ellipse
         style="fill:#2f2e41;stroke-width:0.26458335"
         cx="-156.45132"
         cy="198.4679"
         rx="0.96001166"
         ry="0.72000843"
         transform="rotate(-45)"
         id="ellipse2831" />
      <ellipse
         style="fill:#2f2e41;stroke-width:0.26458332"
         cx="-217.04991"
         cy="129.21548"
         rx="0.72000837"
         ry="0.9600116"
         transform="rotate(-66.86956)"
         id="ellipse2833" />
      <circle
         style="fill:#ffb8b8;stroke-width:0.26458332"
         cx="32.103764"
         cy="253.27969"
         r="1.968984"
         id="circle2835" />
      <path
         style="fill:#2f2e41;stroke-width:0.26458332"
         inkscape:connector-curvature="0"
         d="m 30.034833,252.04118 a 2.6779646,2.6779646 0 0 0 1.53044,0.47298 1.6410872,1.6410872 0 0 1 -0.65044,0.2676 5.3999487,5.3999487 0 0 0 2.20571,0.0124 1.4275549,1.4275549 0 0 0 0.46174,-0.15859 0.58435794,0.58435794 0 0 0 0.28501,-0.38117 c 0.0484,-0.27646 -0.16702,-0.52763 -0.39089,-0.6969 a 2.8833966,2.8833966 0 0 0 -2.42301,-0.48419 1.3268811,1.3268811 0 0 0 -0.71761,0.40554 c -0.17581,0.21737 -0.22788,0.55247 -0.0604,0.7763 z"
         id="path2837" />
      <path
         style="fill:#a0616a;stroke-width:0.26458332"
         inkscape:connector-curvature="0"
         d="m 3.0417235,269.75404 a 1.3360695,1.3360695 0 0 1 1.11312,-1.71993 l 6.3842895,-7.46012 1.48903,1.56345 -6.3591395,7.15296 a 1.3433104,1.3433104 0 0 1 -2.6273,0.46365 z"
         id="path2839" />
      <path
         style="fill:#0000ff;fill-opacity:1;stroke-width:0.26458332"
         inkscape:connector-curvature="0"
         d="m 8.4621435,261.73886 a 0.5590623,0.5590623 0 0 1 0.15924,-0.43797 l 1.9723705,-2 a 1.5543055,1.5543055 0 0 1 2.51513,1.82688 l -1.31144,2.49432 a 0.5596655,0.5596655 0 0 1 -0.82558,0.19137 L 8.6897535,262.1456 a 0.55903494,0.55903494 0 0 1 -0.22761,-0.40674 z"
         id="path2841" />
      <circle
         style="fill:#a0616a;stroke-width:0.26458332"
         cx="13.09345"
         cy="254.10684"
         r="3.0546579"
         id="circle2843" />
      <path
         style="fill:#1a233b;fill-opacity:1;stroke-width:0.26458332"
         inkscape:connector-curvature="0"
         d="m 11.432494,267.77608 a 0.55322312,0.55322312 0 0 1 -0.21962,-0.38112 48.877417,48.877417 0 0 0 -0.92063,-5.24966 3.2949373,3.2949373 0 0 1 6.118579,-2.28663 c 1.20131,2.25457 1.29307,5.34998 1.27677,6.57619 a 0.55861084,0.55861084 0 0 1 -0.46676,0.54315 l -5.35973,0.90217 a 0.5671277,0.5671277 0 0 1 -0.0945,0.008 0.55488346,0.55488346 0 0 1 -0.33406,-0.11198 z"
         id="path2845" />
      <path
         style="fill:#a0616a;stroke-width:0.26458332"
         inkscape:connector-curvature="0"
         d="m 23.003823,257.8301 a 1.3091409,1.3091409 0 0 0 -0.0298,0.20399 l -5.34262,3.08214 -1.2986,-0.74759 -1.38439,1.81236 2.1703,1.54686 a 0.99496088,0.99496088 0 0 0 1.19373,-0.0291 l 5.50916,-4.34622 a 1.3055255,1.3055255 0 1 0 -0.81782,-1.52246 z"
         id="path2847" />
      <path
         style="fill:#0000ff;fill-opacity:1;stroke-width:0.26458332"
         inkscape:connector-curvature="0"
         d="m 17.452833,261.2622 -1.726719,2.23792 a 0.5596655,0.5596655 0 0 1 -0.84621,0.0463 l -1.95477,-2.02988 a 1.5543055,1.5543055 0 0 1 1.90618,-2.45558 l 2.451709,1.37091 a 0.5596655,0.5596655 0 0 1 0.16981,0.83028 z"
         id="path2849" />
      <polygon
         style="fill:#a0616a;stroke-width:2.12738681"
         points="315.25,669.154 315.252,716.442 327.512,716.441 330.398,669.306 "
         id="polygon2851"
         transform="matrix(0.12437011,0,0,0.12437011,-19.063196,206.18036)" />
      <path
         style="fill:#0000ff;fill-opacity:1;stroke-width:0.26458332"
         inkscape:connector-curvature="0"
         d="m 19.755813,294.78649 3.00276,-1.3e-4 h 1.3e-4 a 1.9135647,1.9135647 0 0 1 1.91361,1.91359 v 0.0622 l -4.91641,1.2e-4 z"
         id="path2853" />
      <polygon
         style="fill:#a0616a;stroke-width:2.12738681"
         points="198.25,669.154 198.252,716.442 210.512,716.441 216.344,669.153 "
         id="polygon2855"
         transform="matrix(0.12437011,0,0,0.12437011,-19.063196,206.18036)" />
      <path
         style="fill:#0000ff;fill-opacity:1;stroke-width:0.26458332"
         inkscape:connector-curvature="0"
         d="m 5.2045035,294.78649 3.00277,-1.3e-4 h 1.3e-4 a 1.9135647,1.9135647 0 0 1 1.9136105,1.91359 v 0.0622 l -4.9164105,1.2e-4 z"
         id="path2857" />
      <path
         style="fill:#6c8196;fill-opacity:1;stroke-width:0.26458332"
         inkscape:connector-curvature="0"
         d="m 7.2552235,292.22987 -1.89227,-0.2468 a 0.55961823,0.55961823 0 0 1 -0.46803,-0.70006 l 2.76025,-13.564 a 31.533468,31.533468 0 0 0 0.56841,-3.99089 c 0.0806,-1.09116 0.40002,-2.63412 1.46412,-3.78783 a 15.998292,15.998292 0 0 0 1.2094505,-1.49438 l 0.83552,-1.15686 5.56583,-0.88553 0.004,0.0689 a 32.253912,32.253912 0 0 0 3.37475,12.70786 14.352221,14.352221 0 0 1 1.50533,5.7175 l 0.31541,6.15037 a 0.5603943,0.5603943 0 0 1 -0.16205,0.42315 0.55319825,0.55319825 0 0 1 -0.4223,0.16445 l -1.80895,-0.0822 a 0.56067787,0.56067787 0 0 1 -0.52068,-0.43663 l -1.51033,-6.73834 a 0.43964088,0.43964088 0 0 0 -0.0765,-0.16603 l -4.73982,-6.31968 a 0.31094891,0.31094891 0 0 0 -0.54223,0.0838 l -4.8590905,13.88307 a 0.56251357,0.56251357 0 0 1 -0.52893,0.37481 0.5495256,0.5495256 0 0 1 -0.0717,-0.005 z"
         id="path2859" />
      <path
         style="fill:#2f2e41;stroke-width:0.26458332"
         inkscape:connector-curvature="0"
         d="m 9.7158435,251.98667 a 13.54782,13.54782 0 0 0 0.5353795,-2.25674 c 0.0357,-0.44606 -0.0786,-0.92601 -0.4033995,-1.23378 -0.60793,-0.57597 -1.64081,-0.30164 -2.27657,0.24346 -0.91881,0.78779 -1.37705,1.99847 -1.55024,3.19631 -0.17318,1.19785 -0.097,2.41594 -0.13867,3.62552 -0.0417,1.20959 -0.21469,2.45332 -0.83135,3.49474 -0.61667,1.04142 -1.76102,1.8408 -2.96807,1.75217 a 2.0888433,2.0888433 0 0 1 -1.30759,-0.55414 1.5161736,1.5161736 0 0 1 -0.45536,-1.31658 c -0.61694,1.1047 -0.3042,2.60194 0.61601,3.47038 0.92022,0.86844 2.33569,1.11394 3.54544,0.74315 1.20976,-0.37078 2.20542,-1.3005 2.80015,-2.41733 0.59472,-1.11682 0.81266,-2.40695 0.78108,-3.67186 -0.0243,-0.97135 -0.18937,-1.95065 -0.0252,-2.90834 0.16415,-0.95768 0.76351,-1.93008 1.70863,-2.15561 z"
         id="path2861" />
      <path
         style="fill:#2f2e41;stroke-width:0.26458332"
         inkscape:connector-curvature="0"
         d="m 13.960154,253.24577 c 0.16114,0.53829 0.777489,0.87022 1.331959,0.77918 0.55447,-0.091 1.01041,-0.54766 1.17889,-1.0837 a 2.2309821,2.2309821 0 0 0 -0.17435,-1.63553 2.5469183,2.5469183 0 0 0 -1.4573,-1.29804 2.0911715,2.0911715 0 0 0 -1.90147,0.30384 0.69930452,0.69930452 0 0 0 -0.488689,-0.51107 1.3363245,1.3363245 0 0 0 -0.733361,0.0108 3.0216576,3.0216576 0 0 0 -1.68177,1.22348 4.9170444,4.9170444 0 0 0 -0.7622195,1.96479 c -0.18764,1.05324 -0.11843,2.20414 0.4731,3.09554 0.5915405,0.89141 1.8017305,1.41776 2.7835205,0.99278 0.0612,-0.31296 -0.0838,-0.6281 -0.25159,-0.89929 -0.16779,-0.27119 -0.36664,-0.53538 -0.43109,-0.84769 -0.0644,-0.31232 0.0591,-0.69435 0.36121,-0.79649 0.25773,-0.0871 0.53251,0.054 0.80404,0.0711 a 0.88104408,0.88104408 0 0 0 0.84514,-1.2695 z"
         id="path2863" />
      <path
         style="fill:#cccccc;stroke-width:0.26458332"
         inkscape:connector-curvature="0"
         d="M 99.219477,296.81964 H 1.4068451 a 0.10654971,0.12437011 0 0 1 0,-0.24874 H 99.219477 a 0.10654971,0.12437011 0 0 1 0,0.24874 z"
         id="path2865" />
    </g>
  </g>
</svg>
